<svg width="412" height="391" viewBox="0 0 412 391" fill="none" xmlns="http://www.w3.org/2000/svg">
<path d="M81.7025 201.982H60.4945V194.491H87.8416C87.124 191.313 84.8119 188.362 80.7457 188.362H60.8932C56.3486 188.362 53.7176 190.745 53.7176 195.966V201.528C53.7176 206.068 56.4283 208.678 60.4148 208.678H81.8619V216.623H53C53.7176 220.936 56.0297 223.206 60.1756 223.206H81.7822C86.3268 223.206 88.5592 220.709 88.5592 215.374V209.813C88.5592 204.933 85.9281 202.322 81.7025 201.982ZM124.995 188.475H98.8442V223.319H106.259V209.927H125.553C130.895 209.927 133.845 207.316 133.845 201.187V197.328C133.766 191.653 130.417 188.475 124.995 188.475ZM127.387 199.598C127.387 202.095 127.068 203.457 124.198 203.457H106.259L106.339 194.377H123.879C127.068 194.377 127.467 195.739 127.467 198.123V199.598H127.387ZM158.482 209.7H142.695L138.788 215.601H161.591L165.498 223.319H174.268L155.372 187L150.907 194.831L158.482 209.7ZM188.46 194.491H216.205C215.488 190.405 212.697 188.362 208.711 188.362H187.981C184.394 188.362 180.965 190.405 180.965 195.966V215.488C180.965 221.049 184.394 223.092 187.981 223.092H208.95C213.734 223.092 215.408 221.163 216.205 216.509H188.46V194.491ZM248.735 206.068V200.166H226.331V223.319H259.419V216.736H233.826V206.068H248.735ZM227.128 188.475H260.535V194.604H227.128V188.475ZM281.105 188.475H269.464L283.178 202.776C285.171 200.847 287.483 198.804 289.556 197.101L281.105 188.475ZM298.007 206.295C296.014 208.224 294.021 210.381 292.107 212.424L302.472 223.206H314.192L298.007 206.295Z" fill="white"/>
<path d="M364.461 167.92C300.678 173.141 271.178 211.957 264.561 221.151L263.206 222.966H275.005C306.897 177.454 352.741 169.396 364.461 167.92Z" fill="white"/>
</svg>
